<?xml version="1.0" encoding="utf-8"?>
<!-- Generated by IcoMoon.io -->
<!DOCTYPE svg PUBLIC "-//W3C//DTD SVG 1.1//EN" "http://www.w3.org/Graphics/SVG/1.1/DTD/svg11.dtd">
<svg version="1.1" xmlns="http://www.w3.org/2000/svg" xmlns:xlink="http://www.w3.org/1999/xlink" width="512" height="512" viewBox="0 0 512 512">
<g>
</g>
	<path d="M271.933 258.601c0 9.858-7.991 17.849-17.849 17.849s-17.849-7.991-17.849-17.849c0-9.857 7.991-17.849 17.849-17.849 9.858 0 17.849 7.991 17.849 17.849z" fill="#000000" />
	<path d="M271.943 153.538c0 9.863-7.995 17.858-17.858 17.858s-17.858-7.995-17.858-17.858c0-9.863 7.995-17.858 17.858-17.858 9.863 0 17.858 7.995 17.858 17.858z" fill="#000000" />
	<path d="M271.933 100.987c0 9.858-7.991 17.849-17.849 17.849s-17.849-7.991-17.849-17.849c0-9.858 7.991-17.849 17.849-17.849 9.858 0 17.849 7.991 17.849 17.849z" fill="#000000" />
	<path d="M271.933 48.446c0 9.858-7.991 17.849-17.849 17.849s-17.849-7.991-17.849-17.849c0-9.858 7.991-17.849 17.849-17.849 9.858 0 17.849 7.991 17.849 17.849z" fill="#000000" />
	<path d="M254.085 293.305c9.851 0 17.859 7.977 17.859 17.808 0 9.892-7.998 17.879-17.858 17.879-9.851 0-17.828-7.987-17.828-17.879 0-9.83 7.987-17.808 17.828-17.808z" fill="#000000" />
	<path d="M202.742 240.763c9.82 0 17.869 7.977 17.869 17.848 0 9.831-8.048 17.838-17.869 17.838-9.892 0-17.858-8.007-17.858-17.838 0-9.871 7.966-17.849 17.858-17.849z" fill="#000000" />
	<path d="M303.452 240.763c9.892 0 17.869 7.977 17.869 17.848 0 9.831-7.977 17.838-17.869 17.838-9.841 0-17.828-8.007-17.828-17.838 0-9.871 7.987-17.849 17.828-17.849z" fill="#000000" />
	<path d="M254.085 188.201c9.851 0 17.859 8.007 17.859 17.869 0 9.851-7.998 17.817-17.858 17.817-9.851 0-17.828-7.966-17.828-17.817 0-9.861 7.987-17.869 17.828-17.869z" fill="#000000" />
	<path d="M171.53 206.049c0 9.857-7.991 17.849-17.849 17.849s-17.849-7.991-17.849-17.849c0-9.857 7.991-17.849 17.849-17.849 9.857 0 17.849 7.991 17.849 17.849z" fill="#000000" />
	<path d="M221.747 206.049c0 9.857-7.991 17.849-17.849 17.849s-17.849-7.991-17.849-17.849c0-9.857 7.991-17.849 17.849-17.849 9.857 0 17.849 7.991 17.849 17.849z" fill="#000000" />
	<path d="M372.368 206.049c0 9.857-7.991 17.849-17.849 17.849s-17.849-7.991-17.849-17.849c0-9.857 7.991-17.849 17.849-17.849 9.858 0 17.849 7.991 17.849 17.849z" fill="#000000" />
	<path d="M304.343 188.201c9.861 0 17.828 8.007 17.828 17.869 0 9.851-7.966 17.817-17.828 17.817-9.882 0-17.879-7.966-17.879-17.817 0-9.861 7.998-17.869 17.879-17.869z" fill="#000000" />
	<path d="M119.829 239.298h-84.982v242.105h442.317v-242.105h-89.723l-42.25 47.309h108.308l-23.654-23.644v194.775l23.654-23.675h-394.998l23.654 23.675v-194.775l-23.654 23.644h104.387z" fill="#000000" />
</svg>
