<?xml version="1.0" encoding="UTF-8" standalone="no"?>
<!-- Generated by IcoMoon.io -->

<svg
   xmlns:dc="http://purl.org/dc/elements/1.1/"
   xmlns:cc="http://creativecommons.org/ns#"
   xmlns:rdf="http://www.w3.org/1999/02/22-rdf-syntax-ns#"
   xmlns:svg="http://www.w3.org/2000/svg"
   xmlns="http://www.w3.org/2000/svg"
   xmlns:sodipodi="http://sodipodi.sourceforge.net/DTD/sodipodi-0.dtd"
   xmlns:inkscape="http://www.inkscape.org/namespaces/inkscape"
   version="1.1"
   width="500"
   height="300"
   viewBox="0 0 500 300"
   id="svg6"
   sodipodi:docname="speaker.svg"
   inkscape:version="0.92.2 (5c3e80d, 2017-08-06)">
  <metadata
     id="metadata12">
    <rdf:RDF>
      <cc:Work
         rdf:about="">
        <dc:format>image/svg+xml</dc:format>
        <dc:type
           rdf:resource="http://purl.org/dc/dcmitype/StillImage" />
        <dc:title />
      </cc:Work>
    </rdf:RDF>
  </metadata>
  <defs
     id="defs10" />
  <sodipodi:namedview
     pagecolor="#ffffff"
     bordercolor="#666666"
     borderopacity="1"
     objecttolerance="10"
     gridtolerance="10"
     guidetolerance="10"
     inkscape:pageopacity="0"
     inkscape:pageshadow="2"
     inkscape:window-width="1920"
     inkscape:window-height="1033"
     id="namedview8"
     showgrid="false"
     inkscape:zoom="0.4609375"
     inkscape:cx="-466.44067"
     inkscape:cy="256"
     inkscape:window-x="0"
     inkscape:window-y="0"
     inkscape:window-maximized="1"
     inkscape:current-layer="svg6" />
  <g
     id="g2"
     transform="matrix(1.3827553,0,0,1,-95.688826,-212)" />
  <path
     d="M 38.385298,88.80401 H 123.53458 L 256.89985,-0.55252 V 298.76751 L 123.03358,209.4389 H 38.386238 V 88.80469 Z m 422.236582,89.3075 c -5.90175,45.56056 -30.00976,86.4832 -72.34284,122.44101 22.1596,-27.4073 34.95661,-59.4246 39.39304,-95.38242 3.92509,-33.46111 0.48217,-65.14333 -11.32134,-94.67072 -14.27174,-35.94352 -37.907,-61.59305 -70.88695,-76.88047 41.3311,12.46926 71.85127,31.67541 91.55297,57.67431 19.69134,25.25247 27.56034,54.08248 23.60606,86.81828 v 0 z m -59.04577,3.92689 c 2.96077,-25.97096 -3.44292,-49.13809 -19.19976,-69.40462 -15.73801,-20.64997 -40.35642,-36.2786 -73.30716,-46.27157 26.54705,12.10013 45.75717,32.74941 57.06911,61.57261 9.3635,23.84339 12.30448,49.11698 8.85309,75.81326 -3.42314,28.8232 -13.78017,54.10359 -31.48449,76.15515 33.9339,-28.83681 53.64502,-61.21711 58.07204,-97.86483 v 0 z m -53.64407,4.61681 c 2.95135,-20.99118 -2.46919,-39.48632 -15.25584,-55.87499 -12.80643,-16.38186 -31.98642,-28.83 -58.06168,-36.64772 21.13782,9.96574 35.92093,26.32649 45.24583,49.46568 7.40662,18.87176 9.84566,39.15805 7.40662,60.51223 -2.96077,22.76938 -11.35054,43.41935 -25.60252,60.84048 27.57918,-22.76257 42.83502,-49.11016 46.26853,-78.29567 z"
     id="path4"
     inkscape:connector-curvature="0"
     style="fill:#000000;stroke-width:0.80084521" />
</svg>
