<?xml version="1.0" encoding="UTF-8" standalone="no"?>
<!-- Generated by IcoMoon.io -->

<svg
   xmlns:dc="http://purl.org/dc/elements/1.1/"
   xmlns:cc="http://creativecommons.org/ns#"
   xmlns:rdf="http://www.w3.org/1999/02/22-rdf-syntax-ns#"
   xmlns:svg="http://www.w3.org/2000/svg"
   xmlns="http://www.w3.org/2000/svg"
   xmlns:sodipodi="http://sodipodi.sourceforge.net/DTD/sodipodi-0.dtd"
   xmlns:inkscape="http://www.inkscape.org/namespaces/inkscape"
   version="1.1"
   width="500"
   height="300"
   viewBox="0 0 500 300.00001"
   id="svg4578"
   sodipodi:docname="eye.svg"
   inkscape:version="0.92.2 (5c3e80d, 2017-08-06)">
  <metadata
     id="metadata4584">
    <rdf:RDF>
      <cc:Work
         rdf:about="">
        <dc:format>image/svg+xml</dc:format>
        <dc:type
           rdf:resource="http://purl.org/dc/dcmitype/StillImage" />
        <dc:title></dc:title>
      </cc:Work>
    </rdf:RDF>
  </metadata>
  <defs
     id="defs4582" />
  <sodipodi:namedview
     pagecolor="#ffffff"
     bordercolor="#666666"
     borderopacity="1"
     objecttolerance="10"
     gridtolerance="10"
     guidetolerance="10"
     inkscape:pageopacity="0"
     inkscape:pageshadow="2"
     inkscape:window-width="1920"
     inkscape:window-height="1033"
     id="namedview4580"
     showgrid="false"
     fit-margin-top="0"
     fit-margin-left="0"
     fit-margin-right="0"
     fit-margin-bottom="0"
     inkscape:zoom="0.59179688"
     inkscape:cx="250.68423"
     inkscape:cy="144.44493"
     inkscape:window-x="0"
     inkscape:window-y="0"
     inkscape:window-maximized="1"
     inkscape:current-layer="svg4578" />
  <g
     id="g4593"
     transform="matrix(0.97764922,0,0,0.97764922,3.2662669,2.1750385)">
    <g
       transform="translate(-3.626,-104.795)"
       id="g4564" />
    <path
       style="fill:#000000"
       inkscape:connector-curvature="0"
       id="path4566"
       d="m 137.952,194.162 c 0,-45.65 26.778,-84.941 65.465,-103.301 C 80.414,113.164 0,203.542 0,203.542 c 76.718,63.365 149.197,91.197 214.016,98.334 -44.298,-15.79 -76.063,-57.989 -76.063,-107.714 z" />
    <path
       style="fill:#000000"
       inkscape:connector-curvature="0"
       id="path4568"
       d="M 504.749,194.428 C 430.591,128.308 359.874,98.561 296.047,90.349 c 41.543,17.162 70.748,57.989 70.748,105.728 0,48.313 -30.003,89.508 -72.315,106.332 127.693,-18.483 210.268,-107.981 210.268,-107.981 z" />
    <path
       style="fill:#000000"
       inkscape:connector-curvature="0"
       id="path4570"
       d="m 310.732,135.323 c 0.236,1.372 0.44,2.744 0.44,4.157 0,14.981 -12.144,27.095 -27.115,27.095 -14.94,0 -27.095,-12.114 -27.095,-27.095 0,-11.182 6.789,-20.746 16.425,-24.914 -6.717,-1.72 -13.762,-2.744 -21.043,-2.744 -46.663,0 -84.5,37.847 -84.5,84.531 0,46.663 37.837,84.531 84.5,84.531 46.725,0 84.541,-37.868 84.541,-84.531 0.01,-24.023 -10.066,-45.639 -26.153,-61.031 z" />
    <path
       style="fill:#000000"
       inkscape:connector-curvature="0"
       id="path4572"
       d="M 350.615,83.508 377.297,29.003 404.899,42.515 378.217,97.02 Z" />
    <path
       style="fill:#000000"
       inkscape:connector-curvature="0"
       id="path4574"
       d="m 124.032,96.038 -23.756,-51.3 27.876,-12.909 23.756,51.3 z" />
    <path
       style="fill:#000000"
       inkscape:connector-curvature="0"
       id="path4576"
       d="M 227.765,72.635 228.615,0 l 30.717,0.359 -0.85,72.635 z" />
  </g>
</svg>
