<?xml version="1.0" encoding="utf-8"?>
<!-- Generated by IcoMoon.io -->
<!DOCTYPE svg PUBLIC "-//W3C//DTD SVG 1.1//EN" "http://www.w3.org/Graphics/SVG/1.1/DTD/svg11.dtd">
<svg version="1.1" xmlns="http://www.w3.org/2000/svg" xmlns:xlink="http://www.w3.org/1999/xlink" width="512" height="512" viewBox="0 0 512 512">
<g>
</g>
	<path d="M254.106 118.835c9.872 0 17.879-7.977 17.879-17.869 0-9.831-7.998-17.817-17.879-17.817-9.851 0-17.838 7.987-17.838 17.817 0 9.892 7.998 17.869 17.838 17.869z" fill="#000000" />
	<path d="M271.954 206.049c0 9.857-7.991 17.849-17.849 17.849s-17.849-7.991-17.849-17.849c0-9.857 7.991-17.849 17.849-17.849 9.858 0 17.849 7.991 17.849 17.849z" fill="#000000" />
	<path d="M254.106 276.47c9.872 0 17.879-8.028 17.879-17.858 0-9.871-7.998-17.849-17.879-17.849-9.851 0-17.838 7.977-17.838 17.849 0 9.83 7.998 17.858 17.838 17.858z" fill="#000000" />
	<path d="M254.106 328.99c9.872 0 17.879-7.987 17.879-17.879 0-9.831-7.998-17.808-17.879-17.808-9.851 0-17.838 7.977-17.838 17.808 0 9.892 7.998 17.879 17.838 17.879z" fill="#000000" />
	<path d="M254.106 66.304c9.872 0 17.879-8.008 17.879-17.838 0-9.861-7.998-17.858-17.879-17.858-9.851 0-17.838 7.998-17.838 17.858 0 9.82 7.998 17.838 17.838 17.838z" fill="#000000" />
	<path d="M202.732 118.835c9.881 0 17.858-7.977 17.858-17.869 0-9.831-7.977-17.817-17.858-17.817-9.831 0-17.838 7.987-17.838 17.817 0 9.892 8.007 17.869 17.838 17.869z" fill="#000000" />
	<path d="M303.503 118.835c9.841 0 17.787-7.977 17.787-17.869 0-9.831-7.946-17.817-17.787-17.817-9.872 0-17.879 7.987-17.879 17.817 0 9.892 8.007 17.869 17.879 17.869z" fill="#000000" />
	<path d="M254.106 171.387c9.872 0 17.879-8.007 17.879-17.879 0-9.851-7.998-17.828-17.879-17.828-9.851 0-17.838 7.977-17.838 17.828 0 9.871 7.998 17.879 17.838 17.879z" fill="#000000" />
	<path d="M153.713 171.387c9.831 0 17.817-8.007 17.817-17.879 0-9.851-7.987-17.828-17.817-17.828-9.881 0-17.869 7.977-17.869 17.828 0 9.871 7.987 17.879 17.869 17.879z" fill="#000000" />
	<path d="M203.888 171.387c9.861 0 17.879-8.007 17.879-17.879 0-9.851-8.018-17.828-17.879-17.828-9.84 0-17.828 7.977-17.828 17.828 0 9.871 7.987 17.879 17.828 17.879z" fill="#000000" />
	<path d="M354.519 171.387c9.892 0 17.899-8.007 17.899-17.879 0-9.851-8.007-17.828-17.899-17.828-9.851 0-17.838 7.977-17.838 17.828 0 9.871 7.987 17.879 17.838 17.879z" fill="#000000" />
	<path d="M304.363 171.387c9.841 0 17.817-8.007 17.817-17.879 0-9.851-7.977-17.828-17.817-17.828-9.902 0-17.879 7.977-17.879 17.828 0 9.871 7.977 17.879 17.879 17.879z" fill="#000000" />
	<path d="M119.829 239.298h-84.982v242.105h442.317v-242.105h-89.733l-42.23 47.309h108.288l-23.623-23.644v194.775l23.623-23.675h-394.978l23.685 23.675v-194.775l-23.685 23.644h104.438z" fill="#000000" />
</svg>
